<svg id="b88c0580-93bc-4bf6-9ee7-c7ab7a387ad2" data-name="Layer 1" xmlns="http://www.w3.org/2000/svg" viewBox="0 0 500 500"><defs><style>.f25ef383-493b-40b1-acd8-1f65183407b0{fill:#a13923;}.b5f01319-b7b2-4f2b-8c2b-23e03b35152c{fill:#cc4b3a;}.fcb237e9-a0a9-4315-8a03-ccc36a8798c1{fill:#8b2318;}</style></defs><title>planeta</title><path class="f25ef383-493b-40b1-acd8-1f65183407b0" d="M330,250a79.89,79.89,0,0,1-26,59c-1.85,1.71-3.78,3.31-5.8,4.86A79.83,79.83,0,0,1,250,330c-1.88,0-3.76-.05-5.58-.22a79.49,79.49,0,0,1-45.69-18.35A80,80,0,0,1,199,188.31a78,78,0,0,1,11.19-7.76,78.86,78.86,0,0,1,7.79-3.93c.72-.33,1.47-.64,2.19-.91a.14.14,0,0,1,.11-.06l.19-.08c1-.39,2-.75,3-1.11a7.52,7.52,0,0,1,.8-.27c1-.36,2-.66,3.07-1s2-.58,3-.83l1.33-.33c.6-.14,1.21-.28,1.82-.39a15.66,15.66,0,0,1,1.71-.33,17.2,17.2,0,0,1,1.72-.3c.77-.14,1.57-.28,2.37-.36,1.08-.17,2.16-.28,3.27-.39l1.52-.11c.77-.05,1.54-.11,2.29-.14,1.22,0,2.4-.08,3.62-.08a80,80,0,0,1,80,80Z"/><path class="b5f01319-b7b2-4f2b-8c2b-23e03b35152c" d="M330,250a79.6,79.6,0,0,1-14.45,45.88H240.44a9.18,9.18,0,1,1,0-18.35H174.82a80.4,80.4,0,0,1,0-55.06H282.28a9.18,9.18,0,1,1,0,18.35h47.24A79.68,79.68,0,0,1,330,250Z"/><path class="b5f01319-b7b2-4f2b-8c2b-23e03b35152c" d="M317.3,206.66H240.44a9.18,9.18,0,1,1,0-18.35H199a78,78,0,0,1,11.19-7.76,78.86,78.86,0,0,1,7.79-3.93c.72-.33,1.47-.64,2.19-.91a.14.14,0,0,1,.11-.06l.19-.08c1-.39,2-.75,3-1.11a7.52,7.52,0,0,1,.8-.27c1-.36,2-.66,3.07-1s2-.58,3-.83l1.33-.33c.6-.14,1.21-.28,1.82-.39a15.66,15.66,0,0,1,1.71-.33,17.2,17.2,0,0,1,1.72-.3c.77-.14,1.57-.28,2.37-.36,1.08-.17,2.16-.28,3.27-.39l1.52-.11c.77-.05,1.54-.11,2.29-.14,1.22,0,2.4-.08,3.62-.08A79.93,79.93,0,0,1,317.3,206.66Z"/><path class="b5f01319-b7b2-4f2b-8c2b-23e03b35152c" d="M257.6,320.64a9.15,9.15,0,0,1-9.18,9.18h-4a79.49,79.49,0,0,1-45.69-18.35h49.69A9.17,9.17,0,0,1,257.6,320.64Z"/><rect class="fcb237e9-a0a9-4315-8a03-ccc36a8798c1" x="178.19" y="236.92" width="60.13" height="4.89" rx="2.44"/><path class="fcb237e9-a0a9-4315-8a03-ccc36a8798c1" d="M304,309c-1.85,1.71-3.78,3.31-5.8,4.86H267.11a2.43,2.43,0,1,1,0-4.86Z"/><path class="fcb237e9-a0a9-4315-8a03-ccc36a8798c1" d="M247.37,178.09a2.46,2.46,0,0,1-2.46,2.46H210.2a78.86,78.86,0,0,1,7.79-3.93c.72-.33,1.47-.64,2.19-.91a.14.14,0,0,1,.11-.06h24.62A2.44,2.44,0,0,1,247.37,178.09Z"/><rect class="fcb237e9-a0a9-4315-8a03-ccc36a8798c1" x="257.6" y="278.04" width="62.29" height="4.89" rx="2.44"/><rect class="fcb237e9-a0a9-4315-8a03-ccc36a8798c1" x="235.19" y="255.5" width="34.36" height="4.89" rx="2.44"/></svg>