<svg id="bb199ca3-7c0c-4fbb-9cb1-a300e6a54660" data-name="Layer 1" xmlns="http://www.w3.org/2000/svg" viewBox="0 0 500 500"><defs><style>.efaf3021-58f0-4302-9f07-cde938fe4a0a{fill:#c6c2a7;}.b713d4ff-112b-42ee-8a9a-5d8f17010a95{fill:#bab69b;}</style></defs><title>planeta</title><path class="efaf3021-58f0-4302-9f07-cde938fe4a0a" d="M312,250c0,.28,0,.53,0,.8a61.9,61.9,0,0,1-11.78,35.6A62,62,0,0,1,188,250c0-1.8.08-3.57.24-5.33a61,61,0,0,1,4.43-18.36A62,62,0,0,1,312,250Z"/><path class="b713d4ff-112b-42ee-8a9a-5d8f17010a95" d="M247.25,235.49a9.22,9.22,0,0,1-9.2,9.18H188.21a61,61,0,0,1,4.43-18.36h45.41A9.18,9.18,0,0,1,247.25,235.49Z"/><path class="b713d4ff-112b-42ee-8a9a-5d8f17010a95" d="M312,250.8a60.45,60.45,0,0,1-3,18.38H262.73a9.2,9.2,0,0,1-9.21-9.17,9.15,9.15,0,0,1,9.21-9.21Z"/><path class="b713d4ff-112b-42ee-8a9a-5d8f17010a95" d="M300,213.21H200a62,62,0,0,1,21.59-18.38H278.4A62.26,62.26,0,0,1,300,213.21Z"/><path class="b713d4ff-112b-42ee-8a9a-5d8f17010a95" d="M300.23,286.4a61.93,61.93,0,0,1-21,18.35H220.83a62,62,0,0,1-21.06-18.35Z"/></svg>