<svg id="b5548bf0-fab3-41c3-b064-4c15f7cfc928" data-name="Layer 1" xmlns="http://www.w3.org/2000/svg" viewBox="0 0 500 500"><defs><style>.aed250e6-583e-4621-8169-b5f2ecea56b8{fill:#7eb2e1;}.a33ce996-86ae-42b3-8e11-868c72837bc0{fill:#4b84b9;}</style></defs><title>planeta</title><path class="aed250e6-583e-4621-8169-b5f2ecea56b8" d="M357.58,250a107.76,107.76,0,0,1-4,29.24,106.59,106.59,0,0,1-10.42,24.65,107.61,107.61,0,0,1-186.26,0,106.59,106.59,0,0,1-10.42-24.65,107.76,107.76,0,0,1-4-29.24,107.59,107.59,0,0,1,179.12-80.35,107.54,107.54,0,0,1,36,80.35Z"/><path class="a33ce996-86ae-42b3-8e11-868c72837bc0" d="M288.21,194.3h53.84a107.69,107.69,0,0,0-20.51-24.66H178.46A107.69,107.69,0,0,0,147,219H288.21a12.33,12.33,0,1,0,0-24.65Z"/><path class="a33ce996-86ae-42b3-8e11-868c72837bc0" d="M146.45,279.23a106.59,106.59,0,0,0,10.42,24.65h49.92a12.33,12.33,0,1,0,0,24.65H323.53a108.25,108.25,0,0,0,19.6-24.65,106.59,106.59,0,0,0,10.42-24.65Z"/></svg>