<svg id="a7196277-afb8-4c21-98db-b0fdba5ae997" data-name="Layer 1" xmlns="http://www.w3.org/2000/svg" viewBox="0 0 500 500"><defs><style>.e8a48c4c-063e-4c12-8b66-098773307466{fill:#f2b55d;}.f047aefd-3d67-41c5-b76f-0f21610acf26{fill:#e59325;}.f433cede-02bf-40bf-b521-27c20230eff9{fill:#dc6d26;}</style></defs><title>planeta</title><path class="e8a48c4c-063e-4c12-8b66-098773307466" d="M409.69,250a164,164,0,0,1-1.18,19.54,156.91,156.91,0,0,1-5.31,25.62,154.59,154.59,0,0,1-10,25.59,160.6,160.6,0,0,1-38.41,49.78,155.11,155.11,0,0,1-17.19,13,158.09,158.09,0,0,1-74,25.6q-6.71.57-13.54.58t-13.54-.58a158.09,158.09,0,0,1-74.05-25.6,159.85,159.85,0,0,1-55.6-62.79,154.59,154.59,0,0,1-10-25.59,156.91,156.91,0,0,1-5.31-25.62A164,164,0,0,1,90.31,250c0-2,0-4.07.13-6.06a156.77,156.77,0,0,1,10.45-51.21,157,157,0,0,1,12.58-25.59,159.56,159.56,0,0,1,296.09,76.8C409.67,245.92,409.69,248,409.69,250Z"/><path class="f047aefd-3d67-41c5-b76f-0f21610acf26" d="M336.78,115.91a159.6,159.6,0,0,0-204,25.6H367.19A159.49,159.49,0,0,0,336.78,115.91Z"/><path class="f047aefd-3d67-41c5-b76f-0f21610acf26" d="M378.43,344.9a158.74,158.74,0,0,1-23.65,25.62H224.71a12.81,12.81,0,0,1-9-21.87,12.68,12.68,0,0,1,9-3.75Z"/><path class="f047aefd-3d67-41c5-b76f-0f21610acf26" d="M409.56,243.93H90.44c-.11,2-.13,4-.13,6.06a164,164,0,0,0,1.18,19.54,156.91,156.91,0,0,0,5.31,25.62,154.59,154.59,0,0,0,10,25.59H393.19a154.59,154.59,0,0,0,10-25.59,156.91,156.91,0,0,0,5.31-25.62A164,164,0,0,0,409.69,250C409.69,248,409.67,245.92,409.56,243.93Z"/><path class="f047aefd-3d67-41c5-b76f-0f21610acf26" d="M323.16,192.72H252.79a12.8,12.8,0,1,0,0-25.59H113.47a157,157,0,0,0-12.58,25.59,159.83,159.83,0,0,0-7.46,25.59H323.16A12.82,12.82,0,0,0,336,205.52,12.78,12.78,0,0,0,323.16,192.72Z"/><path class="f433cede-02bf-40bf-b521-27c20230eff9" d="M320,154.3a12.84,12.84,0,0,1-12.8,12.83H113.47a158.82,158.82,0,0,1,19.34-25.62H307.24A12.8,12.8,0,0,1,320,154.3Z"/><path class="f433cede-02bf-40bf-b521-27c20230eff9" d="M409.56,243.93H163.8a12.8,12.8,0,0,1-9-21.86,12.67,12.67,0,0,1,9-3.76H406.57A160,160,0,0,1,409.56,243.93Z"/><path class="f433cede-02bf-40bf-b521-27c20230eff9" d="M408.51,269.53h-130a12.81,12.81,0,1,0,0,25.62H96.8a154.59,154.59,0,0,0,10,25.59H307.24a12.8,12.8,0,1,0,0-25.59h96A156.91,156.91,0,0,0,408.51,269.53Z"/><path class="f433cede-02bf-40bf-b521-27c20230eff9" d="M337.59,383.53a158.09,158.09,0,0,1-74,25.6H236.46a158.09,158.09,0,0,1-74.05-25.6Z"/></svg>