<svg id="a9c418d5-e506-4ad7-b2f8-1d9b4eb446cd" data-name="Layer 1" xmlns="http://www.w3.org/2000/svg" viewBox="0 0 500 500"><defs><style>.a47faa73-a5aa-4db7-a96a-15a5868c3054{fill:#2d9fba;}.f1b47b7b-e7dd-4dfe-a449-85c1475a690f{fill:#78c044;}.e09a88ee-d2eb-4e17-b1ec-29bd76c742dc{fill:#eef2eb;}.f3afbaf2-f2b2-4ea6-a3d8-68fb751426a0{fill:#fff;opacity:0.28;}</style></defs><title>planeta</title><path class="a47faa73-a5aa-4db7-a96a-15a5868c3054" d="M341,250a86.82,86.82,0,0,1-.61,10.5,91.27,91.27,0,0,1-14.76,40.13,92.14,92.14,0,0,1-20.09,21.47,83.58,83.58,0,0,1-8,5.53,90.47,90.47,0,0,1-37.79,12.85A86.75,86.75,0,0,1,250,341a88.91,88.91,0,0,1-9.84-.53,90.61,90.61,0,0,1-37.65-12.85,87.05,87.05,0,0,1-8-5.53,91.86,91.86,0,0,1-22.31-24.9,90.3,90.3,0,0,1-12.57-36.7A86.82,86.82,0,0,1,159,250c0-2.57.11-5.12.33-7.63,0-.08,0-.14,0-.22.14-1.72.33-3.4.58-5.06a89.82,89.82,0,0,1,20.43-45.63c1.38-1.66,2.84-3.29,4.36-4.84a91,91,0,0,1,152.43,37.18,89.54,89.54,0,0,1,3.48,18.35C340.89,244.73,341,247.33,341,250Z"/><path class="f1b47b7b-e7dd-4dfe-a449-85c1475a690f" d="M227.3,214.61a9.18,9.18,0,0,1-9.18,9.18H199.19a9.18,9.18,0,1,1,0,18.35H193a9.18,9.18,0,1,1,0,18.35h6.22a9.18,9.18,0,1,1,0,18.35h-19.1a9.18,9.18,0,1,1,0,18.35h-7.91a90.3,90.3,0,0,1-12.57-36.7A86.82,86.82,0,0,1,159,250c0-2.57.11-5.12.33-7.63,0-.08,0-.14,0-.22a90.29,90.29,0,0,1,11.28-36.71h47.48A9.19,9.19,0,0,1,227.3,214.61Z"/><path class="f1b47b7b-e7dd-4dfe-a449-85c1475a690f" d="M341,250a86.82,86.82,0,0,1-.61,10.5H323.06a9.18,9.18,0,1,1,0-18.35H296a9.18,9.18,0,1,1,0-18.35H260.52a9.18,9.18,0,1,1,0-18.36h68.84a90.73,90.73,0,0,1,7.8,18.36,89.54,89.54,0,0,1,3.48,18.35C340.89,244.73,341,247.33,341,250Z"/><path class="f1b47b7b-e7dd-4dfe-a449-85c1475a690f" d="M335.08,282.27a90.44,90.44,0,0,1-9.45,18.35h-7.87a9.18,9.18,0,1,1,0-18.35Z"/><path class="e09a88ee-d2eb-4e17-b1ec-29bd76c742dc" d="M280.17,164.14A9.12,9.12,0,0,1,271,173H229a9.15,9.15,0,0,1-9.15-8.85,91.11,91.11,0,0,1,60.34,0Z"/><path class="e09a88ee-d2eb-4e17-b1ec-29bd76c742dc" d="M297.5,327.62a90.47,90.47,0,0,1-37.79,12.85A86.75,86.75,0,0,1,250,341a88.91,88.91,0,0,1-9.84-.53,90.61,90.61,0,0,1-37.65-12.85Z"/><rect class="f3afbaf2-f2b2-4ea6-a3d8-68fb751426a0" x="213.71" y="256.81" width="108.12" height="50.91" rx="25.45"/><path class="f3afbaf2-f2b2-4ea6-a3d8-68fb751426a0" d="M247.22,212.07a25.47,25.47,0,0,1-25.45,25.45H164.53a23.12,23.12,0,0,1-4.59-.44,89.82,89.82,0,0,1,20.43-45.63c1.38-1.66,2.84-3.29,4.36-4.84h37A25.46,25.46,0,0,1,247.22,212.07Z"/></svg>