<svg id="b464651e-6b93-4aae-87b8-86ed06514aaa" data-name="Layer 1" xmlns="http://www.w3.org/2000/svg" viewBox="0 0 500 500"><defs><style>.a1c0896d-32eb-4498-95ff-18deaace8153{fill:#3dc1d7;}.b1022e3f-d5d8-4f9b-a77f-82c03ca957e7{fill:#fff;opacity:0.28;}.bbc4693d-6a39-4c7c-8aa1-53d41eaa2671{fill:#2ea0bc;}</style></defs><title>planeta</title><path class="a1c0896d-32eb-4498-95ff-18deaace8153" d="M372.38,250a122.72,122.72,0,0,1-75,112.9,124.38,124.38,0,0,1-18.35,6.05,121.92,121.92,0,0,1-18.35,3c-3.54.3-7.11.47-10.7.47a121.88,121.88,0,0,1-85.68-35A123.64,123.64,0,0,1,146,314.49a122.45,122.45,0,0,1,48.5-173.56,118.15,118.15,0,0,1,18.36-7.58,121.47,121.47,0,0,1,29.51-5.5c2.55-.16,5.09-.25,7.66-.25,3.59,0,7.16.17,10.7.47a121.92,121.92,0,0,1,18.35,3,124.38,124.38,0,0,1,18.35,6.05,122.79,122.79,0,0,1,18.35,9.65A122.61,122.61,0,0,1,372.38,250Z"/><path class="b1022e3f-d5d8-4f9b-a77f-82c03ca957e7" d="M212.83,133.35V315.43a9.18,9.18,0,1,1-18.36,0V140.93A118.15,118.15,0,0,1,212.83,133.35Z"/><path class="bbc4693d-6a39-4c7c-8aa1-53d41eaa2671" d="M349.77,255.24a9.19,9.19,0,0,0-15.67,6.49V161.1a121.38,121.38,0,0,0-18.35-14.34,122.79,122.79,0,0,0-18.35-9.65,124.38,124.38,0,0,0-18.35-6.05V232.35a9.18,9.18,0,0,0-18.35,0V128.07c-3.54-.3-7.11-.47-10.7-.47-2.57,0-5.11.09-7.66.25V271a9.18,9.18,0,0,0,18.36,0V371.93a121.92,121.92,0,0,0,18.35-3,124.38,124.38,0,0,0,18.35-6.05,122.79,122.79,0,0,0,18.35-9.65A121.38,121.38,0,0,0,334.1,338.9,122.73,122.73,0,0,0,352.46,317V261.73A9.14,9.14,0,0,0,349.77,255.24Z"/><path class="bbc4693d-6a39-4c7c-8aa1-53d41eaa2671" d="M146,185.51a122.5,122.5,0,0,0,0,129,123.64,123.64,0,0,0,18.35,22.89V162.62A122.42,122.42,0,0,0,146,185.51Z"/></svg>