<svg id="bba8db63-e4f8-4025-8a2c-30f776f7f41f" data-name="Layer 1" xmlns="http://www.w3.org/2000/svg" viewBox="0 0 500 500"><defs><style>.f4cd9081-17e6-457c-ac59-4c8e84df09ed{fill:#f38971;}.a6518c36-c5f7-4702-8b99-c4b26d1bfda6{fill:#d35f46;}.e05ed7fc-f82c-4016-945a-55bb2efed94f{fill:#fff;opacity:0.56;}</style></defs><title>planeta</title><path class="f4cd9081-17e6-457c-ac59-4c8e84df09ed" d="M341,250a90.92,90.92,0,0,1-33.83,70.81q-2.7,2.19-5.56,4.14a88.25,88.25,0,0,1-11.72,6.86,92.43,92.43,0,0,1-15.34,5.83,91,91,0,0,1-64.42-5.83,91.24,91.24,0,0,1-34.49-29.36A89.68,89.68,0,0,1,162,273.09a87.75,87.75,0,0,1-2.1-10.42,79.44,79.44,0,0,1-.77-7.93c-.09-1.58-.12-3.12-.12-4.73v0a91.28,91.28,0,0,1,1-13.63,90.66,90.66,0,0,1,25.65-50.72,88.41,88.41,0,0,1,9.5-8.29c2.05-1.54,4.15-3,6.33-4.36a91,91,0,0,1,103.29,4.36,91.69,91.69,0,0,1,24.54,28.08,89,89,0,0,1,7.79,18.36c.64,2,1.16,4.14,1.66,6.24a90.87,90.87,0,0,1,1.88,12.66C340.9,245.09,341,247.53,341,250Z"/><path class="a6518c36-c5f7-4702-8b99-c4b26d1bfda6" d="M206.33,311.62a9.17,9.17,0,0,1-9.17,9.18h-4.32a91.73,91.73,0,0,1-17.21-18.36h21.53A9.19,9.19,0,0,1,206.33,311.62Z"/><path class="a6518c36-c5f7-4702-8b99-c4b26d1bfda6" d="M338,273.09a90.7,90.7,0,0,1-7,18.35H220.43a9.18,9.18,0,1,1,0-18.35H162a89,89,0,0,1-2.87-18.35c-.09-1.58-.12-3.15-.12-4.75a91.28,91.28,0,0,1,1-13.63h96.4A9.18,9.18,0,0,1,262.93,252a9,9,0,0,1-6.49,2.71h21.47a9.18,9.18,0,1,1,0,18.35Z"/><path class="a6518c36-c5f7-4702-8b99-c4b26d1bfda6" d="M324.37,302.44a91.73,91.73,0,0,1-17.21,18.36H270.62a9.18,9.18,0,1,1,0-18.36Z"/><path class="a6518c36-c5f7-4702-8b99-c4b26d1bfda6" d="M323,195.7H177a92,92,0,0,1,18.21-18.35,91,91,0,0,1,109.62,0A92,92,0,0,1,323,195.7Z"/><path class="a6518c36-c5f7-4702-8b99-c4b26d1bfda6" d="M337.14,223.79H215.51a9.18,9.18,0,1,1,0-18.36H329.35A89,89,0,0,1,337.14,223.79Z"/><path class="e05ed7fc-f82c-4016-945a-55bb2efed94f" d="M283.17,179.32a6.33,6.33,0,0,1-6.36,6.32H185.69a88.41,88.41,0,0,1,9.5-8.29c2.05-1.54,4.15-3,6.33-4.36h75.29A6.34,6.34,0,0,1,283.17,179.32Z"/><path class="e05ed7fc-f82c-4016-945a-55bb2efed94f" d="M340.68,242.69H279.85a6.34,6.34,0,0,1-4.48-10.81,6.42,6.42,0,0,1,4.48-1.85H338.8A90.87,90.87,0,0,1,340.68,242.69Z"/><path class="e05ed7fc-f82c-4016-945a-55bb2efed94f" d="M245.74,256.34a6.32,6.32,0,0,1-6.33,6.33H159.9a79.44,79.44,0,0,1-.77-7.93c-.09-1.58-.12-3.12-.12-4.73h80.4A6.32,6.32,0,0,1,245.74,256.34Z"/><path class="e05ed7fc-f82c-4016-945a-55bb2efed94f" d="M301.6,324.94a88.25,88.25,0,0,1-11.72,6.86,92.43,92.43,0,0,1-15.34,5.83H238.45a6.35,6.35,0,0,1-6.33-6.36,6.32,6.32,0,0,1,6.33-6.33Z"/></svg>